<svg width="15" height="15" viewBox="0 0 15 15" fill="none" xmlns="http://www.w3.org/2000/svg">
<g clip-path="url(#clip0_580_19576)">
<path d="M0.258863 6.9992L3.92699 8.82733C4.06886 8.89733 4.23636 8.89233 4.37199 8.81295L7.63699 6.91483L5.66074 8.66608C5.56011 8.75545 5.50261 8.88295 5.50261 9.01733V13.283C5.50261 13.733 6.07699 13.9223 6.34636 13.5648L7.93199 11.4567L11.8532 13.6898C12.1282 13.848 12.4807 13.6892 12.5445 13.3748L14.9901 1.18733C15.0632 0.821081 14.6989 0.522331 14.3601 0.658581L0.297613 6.14295C-0.0798866 6.29045 -0.104262 6.81858 0.258863 6.9992ZM13.9026 1.84358L11.7532 12.5542L8.03761 10.438C7.83511 10.3223 7.57449 10.3736 7.43074 10.5636L6.44011 11.8805V9.22795L11.7845 4.49295C12.2076 4.11858 11.7214 3.45295 11.2382 3.7367L4.11949 7.87545L1.62449 6.63233L13.9026 1.84358Z" fill="#54B0AC"/>
</g>
<defs>
<clipPath id="clip0_580_19576">
<rect width="15" height="15" fill="white"/>
</clipPath>
</defs>
</svg>
