<svg width="15" height="15" viewBox="0 0 15 15" fill="none" xmlns="http://www.w3.org/2000/svg">
<g clip-path="url(#clip0_580_19578)">
<path d="M3.95639 12.7365C3.93701 13.6522 3.82889 14.6984 4.62576 14.9509C5.40701 15.2053 5.86014 14.5772 6.87889 13.3022C10.6776 13.5615 14.0308 12.4934 14.4795 8.66403C14.8814 5.25966 14.362 2.71278 13.0251 1.50091C11.0645 -0.377843 4.68264 -0.640968 2.34639 1.59216C1.38451 2.59278 0.915764 4.06091 0.872014 6.21278C0.836389 7.97028 0.763889 11.564 3.95639 12.7365ZM1.80951 6.23216C1.84826 4.33028 2.23326 3.06216 3.00764 2.25591C4.95826 0.392157 10.7389 0.607782 12.3858 2.18778C13.4851 3.18341 13.9095 5.50403 13.5489 8.55466C13.2214 11.3522 11.4201 11.8297 10.742 12.009C9.33764 12.3797 7.99889 12.4603 6.71451 12.349C6.37639 12.3128 6.24326 12.6328 6.12014 12.749C5.50826 13.4847 5.06701 14.0159 4.95264 14.0872C4.86826 13.9615 4.88139 13.3672 4.89139 12.8897C4.86076 12.6747 5.05326 12.0803 4.55139 11.9459C1.71076 11.1072 1.77514 7.93653 1.80951 6.23216Z" fill="#54B0AC"/>
<path d="M3.60185 4.98608C4.10248 5.98421 4.5906 7.74796 6.46498 9.28296C7.1156 9.81921 9.0631 11.0567 9.8256 11.0567C10.915 11.0567 12.1594 9.34296 11.2481 8.57858C10.8381 8.17796 10.2612 7.78358 9.89123 7.56671C9.8906 7.56608 9.88998 7.56608 9.88998 7.56608C8.92935 7.01046 8.4031 8.03296 8.3406 8.07296C6.9331 9.33296 5.19935 7.14421 6.41435 6.08546C6.56373 5.89983 7.45498 5.46983 6.92623 4.49233C6.45748 3.64421 6.1481 3.35233 5.9731 3.11046C5.04998 1.95796 3.05248 3.87233 3.60185 4.98608ZM9.3356 8.34421C9.39935 8.38421 9.95498 8.62733 10.6181 9.27296C10.7025 9.34358 10.14 10.1611 9.78185 10.1142C9.71123 10.0823 9.2006 9.96046 8.10373 9.28983C9.14498 8.93608 9.13623 8.38171 9.3356 8.34421ZM5.16935 3.70358C5.2081 3.68296 5.2281 3.68171 5.22623 3.67671C5.40623 3.92733 5.67498 4.16608 6.10373 4.94171C6.21748 5.15233 5.93685 5.23421 5.7556 5.41921C5.49748 5.64796 5.3081 5.92046 5.19185 6.22108C4.8081 5.49671 4.63623 4.97483 4.46123 4.60983C4.39123 4.27733 4.87185 3.87358 5.16935 3.70358Z" fill="#54B0AC"/>
<path d="M8.00551 5.3451C8.01239 5.34573 8.69239 5.4326 8.81426 6.16448C8.91739 6.78573 9.83989 6.61885 9.73864 6.01073C9.54926 4.87385 8.59239 4.46885 8.11176 4.41385C7.49614 4.34448 7.39051 5.27385 8.00551 5.3451Z" fill="#54B0AC"/>
<path d="M7.52039 3.32152C7.53101 3.32152 9.00664 3.29527 9.96727 4.32277C10.916 5.33777 10.7066 6.8134 10.7048 6.82652C10.6091 7.43465 11.5329 7.59589 11.6304 6.97215C11.6429 6.89402 11.9185 5.03715 10.6523 3.68215C9.39539 2.33715 7.56726 2.37902 7.49164 2.38402C6.85101 2.40527 6.92851 3.37027 7.52039 3.32152Z" fill="#54B0AC"/>
</g>
<defs>
<clipPath id="clip0_580_19578">
<rect width="15" height="15" fill="white"/>
</clipPath>
</defs>
</svg>
