<svg width="15" height="15" viewBox="0 0 15 15" fill="none" xmlns="http://www.w3.org/2000/svg">
<g clip-path="url(#clip0_580_19583)">
<path d="M8.33125 11.2975C10.8625 11.9 11.7531 9.735 11.3069 8.92688C11.1281 8.60438 9.52188 7.985 9.44375 7.955C8.75375 7.70375 8.49875 8.1725 8.02063 8.78938C7.1025 8.33 6.48688 7.96813 5.85438 6.93938C5.89 6.895 5.9375 6.8425 5.97313 6.8025C6.19438 6.555 6.60875 6.09375 6.32625 5.52938C6.08875 5.05625 5.97062 4.72625 5.88375 4.48438C5.63188 3.78375 5.44 3.59375 4.5725 3.59375C3.66938 3.59375 2.96875 4.78063 2.96875 5.8025C2.96875 8.03313 5.9675 10.7331 8.33125 11.2975ZM4.5725 4.53125C4.76 4.53125 4.855 4.5375 4.9025 4.545C5.00375 4.75937 5.10625 5.20687 5.48375 5.90313C5.425 6.1225 4.59063 6.63688 4.9775 7.30188C5.76813 8.64438 6.55938 9.11 7.69313 9.67375C8.44813 10.015 8.68938 9.39688 9.16813 8.85375C9.39 8.94375 10.1388 9.275 10.4675 9.44125C10.4381 10.0888 9.81313 10.6863 8.54875 10.385C6.37875 9.86688 3.90563 7.42563 3.90563 5.80188C3.90625 5.18438 4.33938 4.53125 4.5725 4.53125Z" fill="#54B0AC"/>
<path d="M0.0514302 14.4296C-0.0304448 14.7258 0.19143 15.0227 0.503305 15.0227C0.615805 15.0227 0.432055 15.0515 4.15831 14.0852C5.67518 14.8577 6.82831 14.8333 7.56456 14.9027C14.1614 14.9027 17.3927 6.85709 12.8527 2.17584C6.62956 -3.83916 -3.06232 3.63584 0.993305 11.0052L0.0514302 14.4296ZM12.1064 2.75959C12.2146 2.95709 15.3158 5.75397 13.5889 9.93334C12.5258 12.5083 10.0727 14.0952 7.32393 13.9465C5.08768 13.8221 4.50893 13.0233 4.09706 13.1327L1.17018 13.8952L1.94831 11.0677C1.98206 10.9465 1.96518 10.8171 1.90268 10.7083C-1.83669 4.25584 6.61893 -2.37853 12.1064 2.75959Z" fill="#54B0AC"/>
</g>
<defs>
<clipPath id="clip0_580_19583">
<rect width="15" height="15" fill="white"/>
</clipPath>
</defs>
</svg>
