<svg width="48" height="48" viewBox="0 0 48 48" fill="none" xmlns="http://www.w3.org/2000/svg">
<g clip-path="url(#clip0_336_23371)">
<path d="M36.4481 28.9532L36.3201 28.5418C35.8173 26.9257 34.3077 25.7496 32.5298 25.7496H25.154C24.8274 25.7496 24.5952 25.6831 24.3177 25.5119C24.1304 25.3963 23.912 25.2257 23.6192 24.997C23.5166 24.9168 23.4049 24.8295 23.2821 24.735L23.2761 24.7303L23.2704 24.7254C19.6582 21.5763 14.2316 21.5864 10.6303 24.7555L7.91926 27.1422L7.78969 27.2563L7.63712 27.1755C6.48963 26.5682 5.15178 26.5534 3.99884 27.1294C3.99883 27.1294 3.99881 27.1294 3.9988 27.1294L0.889487 28.6836C0.889438 28.6836 0.889389 28.6837 0.88934 28.6837C0.318237 28.9697 0.087043 29.6641 0.372107 30.2354L36.4481 28.9532ZM36.4481 28.9532L36.7418 28.638L40.8749 24.2011C40.8749 24.2011 40.8749 24.2011 40.8749 24.2011C42.4383 22.5233 44.823 22.6232 46.3393 23.8728C47.9897 25.2355 48.1884 27.6417 46.9548 29.2851L46.9547 29.2852L40.2042 38.2865L40.4042 38.4365L40.2042 38.2865C38.4027 40.6889 35.5324 42.1237 32.5297 42.1237H15.9126H15.6537L15.6627 42.3824C15.7148 43.8804 14.9119 45.3511 13.4704 46.0713L13.4703 46.0714L10.361 47.6265L36.4481 28.9532ZM8.80908 47.1092L0.37218 30.2355L10.3608 47.6266C9.7895 47.9117 9.09507 47.6804 8.80908 47.1092ZM12.4358 44.0033L12.4359 44.0033C13.2539 43.5938 13.5853 42.6001 13.1767 41.782L13.1767 41.7819L7.25486 29.9383C6.84523 29.119 5.85139 28.7889 5.03341 29.1973L5.0333 29.1974L3.18089 30.1236L2.95727 30.2354L3.06908 30.459L10.2489 44.8177L10.3608 45.0414L10.5844 44.9295L12.4358 44.0033ZM14.7075 39.6731L14.7766 39.8113H14.9311H32.5298C34.8095 39.8113 36.9863 38.7234 38.3544 36.899L45.1047 27.8979L44.9048 27.7477L45.1048 27.8977L45.1047 27.8978C45.6084 27.2278 45.5407 26.246 44.8812 25.6687L44.8811 25.6687C44.2601 25.1252 43.2365 25.0588 42.5668 25.7773L42.5668 25.7774L36.3759 32.4229L36.3759 32.423C35.6283 33.2261 34.5696 33.6867 33.4718 33.6867H25.3479C24.7099 33.6867 24.1918 33.1686 24.1918 32.5305C24.1918 31.8924 24.7098 31.3744 25.3479 31.3744H32.5297C33.4429 31.3744 34.1858 30.6315 34.1858 29.7182C34.1858 28.8049 33.4431 28.062 32.5297 28.062H25.1539C24.6737 28.062 24.2128 28.0009 23.6862 27.78C23.1555 27.5573 22.5458 27.1671 21.7783 26.4914L21.7782 26.4913C19.0356 24.0787 14.9006 24.0787 12.1579 26.4913L12.1579 26.4914L9.49651 28.834L9.35197 28.9612L9.43808 29.1334L14.7075 39.6731Z" fill="white" stroke="#54B0AC" stroke-width="0.5"/>
<path d="M29.387 9.42511L29.1651 9.65781L29.4453 9.81551C31.9877 11.2464 33.6864 13.9751 33.6865 17.0634V18.4696C33.6865 19.1077 33.1684 19.6257 32.5303 19.6257H18.3749C17.7368 19.6257 17.2188 19.1077 17.2188 18.4696V17.0634C17.2188 13.9161 19.0116 11.2284 21.511 9.82695L21.7961 9.66709L21.5672 9.43379C20.5752 8.42282 20.0311 7.11003 20.0311 5.72033C20.0311 2.75827 22.5374 0.251953 25.4994 0.251953C28.4788 0.251953 30.8741 2.75675 30.8741 5.72033C30.8741 7.15593 30.3074 8.45983 29.387 9.42511ZM19.5311 17.0634V17.3134H19.7811H31.1241H31.3741V17.0634C31.3741 13.7757 28.7424 11.095 25.4994 11.095C22.2612 11.095 19.5311 13.8252 19.5311 17.0634ZM28.5617 5.72042C28.5617 4.01525 27.1695 2.56436 25.4994 2.56436C23.8136 2.56436 22.3434 4.03463 22.3434 5.72042C22.3434 7.39045 23.7943 8.78273 25.4994 8.78273C27.188 8.78273 28.5617 7.40902 28.5617 5.72042Z" fill="white" stroke="#54B0AC" stroke-width="0.5"/>
</g>
<defs>
<clipPath id="clip0_336_23371">
<rect width="48" height="48" fill="white"/>
</clipPath>
</defs>
</svg>
